<svg width="26" height="26" viewBox="0 0 26 26" fill="none" xmlns="http://www.w3.org/2000/svg">
<mask id="mask0_217_6619" style="mask-type:alpha" maskUnits="userSpaceOnUse" x="0" y="0" width="26" height="26">
<rect width="26" height="26" fill="#D9D9D9"/>
</mask>
<g mask="url(#mask0_217_6619)">
<path d="M6.33752 18.525C7.25835 17.8208 8.28752 17.2656 9.42502 16.8594C10.5625 16.4531 11.7542 16.25 13 16.25C14.2459 16.25 15.4375 16.4531 16.575 16.8594C17.7125 17.2656 18.7417 17.8208 19.6625 18.525C20.2945 17.7847 20.7865 16.9451 21.1386 16.0062C21.4906 15.0674 21.6667 14.0653 21.6667 13C21.6667 10.5986 20.8226 8.55382 19.1344 6.86562C17.4462 5.17743 15.4014 4.33333 13 4.33333C10.5986 4.33333 8.55384 5.17743 6.86564 6.86562C5.17745 8.55382 4.33335 10.5986 4.33335 13C4.33335 14.0653 4.5094 15.0674 4.86148 16.0062C5.21356 16.9451 5.70558 17.7847 6.33752 18.525ZM13 14.0833C11.9347 14.0833 11.0365 13.7177 10.3052 12.9865C9.57398 12.2552 9.20835 11.3569 9.20835 10.2917C9.20835 9.22639 9.57398 8.32812 10.3052 7.59687C11.0365 6.86562 11.9347 6.5 13 6.5C14.0653 6.5 14.9636 6.86562 15.6948 7.59687C16.4261 8.32812 16.7917 9.22639 16.7917 10.2917C16.7917 11.3569 16.4261 12.2552 15.6948 12.9865C14.9636 13.7177 14.0653 14.0833 13 14.0833ZM13 23.8333C11.5014 23.8333 10.0931 23.549 8.77502 22.9802C7.45696 22.4115 6.31044 21.6396 5.33544 20.6646C4.36044 19.6896 3.58856 18.5431 3.01981 17.225C2.45106 15.9069 2.16669 14.4986 2.16669 13C2.16669 11.5014 2.45106 10.0931 3.01981 8.775C3.58856 7.45694 4.36044 6.31041 5.33544 5.33541C6.31044 4.36041 7.45696 3.58854 8.77502 3.01979C10.0931 2.45104 11.5014 2.16666 13 2.16666C14.4986 2.16666 15.907 2.45104 17.225 3.01979C18.5431 3.58854 19.6896 4.36041 20.6646 5.33541C21.6396 6.31041 22.4115 7.45694 22.9802 8.775C23.549 10.0931 23.8334 11.5014 23.8334 13C23.8334 14.4986 23.549 15.9069 22.9802 17.225C22.4115 18.5431 21.6396 19.6896 20.6646 20.6646C19.6896 21.6396 18.5431 22.4115 17.225 22.9802C15.907 23.549 14.4986 23.8333 13 23.8333ZM13 21.6667C13.957 21.6667 14.8597 21.5267 15.7084 21.2469C16.557 20.967 17.3334 20.5653 18.0375 20.0417C17.3334 19.5181 16.557 19.1163 15.7084 18.8365C14.8597 18.5566 13.957 18.4167 13 18.4167C12.0431 18.4167 11.1403 18.5566 10.2917 18.8365C9.44308 19.1163 8.66669 19.5181 7.96252 20.0417C8.66669 20.5653 9.44308 20.967 10.2917 21.2469C11.1403 21.5267 12.0431 21.6667 13 21.6667ZM13 11.9167C13.4695 11.9167 13.8577 11.7632 14.1646 11.4562C14.4715 11.1493 14.625 10.7611 14.625 10.2917C14.625 9.82222 14.4715 9.43402 14.1646 9.12708C13.8577 8.82014 13.4695 8.66666 13 8.66666C12.5306 8.66666 12.1424 8.82014 11.8354 9.12708C11.5285 9.43402 11.375 9.82222 11.375 10.2917C11.375 10.7611 11.5285 11.1493 11.8354 11.4562C12.1424 11.7632 12.5306 11.9167 13 11.9167Z" fill="#1C1B1F"/>
</g>
</svg>
