<?xml version="1.0" encoding="UTF-8"?>
<svg version="1.1" xmlns="http://www.w3.org/2000/svg" width="26" height="26">
<path d="M0 0 C2.0625 1.625 2.0625 1.625 3 4 C2.9375 7.0625 2.9375 7.0625 2 10 C1.33613281 10.42796875 0.67226563 10.8559375 -0.01171875 11.296875 C-2.28812105 12.89608589 -2.28812105 12.89608589 -2.609375 15.91796875 C-2.67898437 17.53638672 -2.67898437 17.53638672 -2.75 19.1875 C-2.8325 21.105625 -2.915 23.02375 -3 25 C-8.61 25 -14.22 25 -20 25 C-20.33 18.4 -20.66 11.8 -21 5 C-19.35 5 -17.7 5 -16 5 C-14.45833358 3.62514468 -14.45833358 3.62514468 -13 2 C-8.61732673 -0.37916549 -4.87445298 -0.47172126 0 0 Z M-14 9 C-14 9.99 -14 10.98 -14 12 C-13.01 12 -12.02 12 -11 12 C-10.67 12.99 -10.34 13.98 -10 15 C-10 14.01 -10 13.02 -10 12 C-9.34 11.67 -8.68 11.34 -8 11 C-8.66 10.34 -9.32 9.68 -10 9 C-11.32 9 -12.64 9 -14 9 Z M-17 11 C-17 14.63 -17 18.26 -17 22 C-13.37 22 -9.74 22 -6 22 C-6 18.7 -6 15.4 -6 12 C-7.74627478 14.61941217 -8.38722388 16.03824877 -9 19 C-11.31 19.33 -13.62 19.66 -16 20 C-15.34 17.36 -14.68 14.72 -14 12 C-14.99 11.67 -15.98 11.34 -17 11 Z M-13 18 C-12 20 -12 20 -12 20 Z " fill="#D61C38" transform="translate(23,0)"/>
<path d="M0 0 C1.32 0 2.64 0 4 0 C3.67 2.31 3.34 4.62 3 7 C1.68 7 0.36 7 -1 7 C-1 7.99 -1 8.98 -1 10 C-1.66 10 -2.32 10 -3 10 C-3.33 13.3 -3.66 16.6 -4 20 C-0.37 20 3.26 20 7 20 C7 16.7 7 13.4 7 10 C8.32 10.33 9.64 10.66 11 11 C10.67 14.96 10.34 18.92 10 23 C4.39 23 -1.22 23 -7 23 C-7.33 16.4 -7.66 9.8 -8 3 C-6.35 3 -4.7 3 -3 3 C-1.97980427 2.0206121 -0.97850195 1.02104551 0 0 Z " fill="#030000" transform="translate(10,2)"/>
<path d="M0 0 C2.31 0 4.62 0 7 0 C6.67 2.31 6.34 4.62 6 7 C1.375 9.125 1.375 9.125 -2 8 C-1.125 2.25 -1.125 2.25 0 0 Z M1 6 C2 8 2 8 2 8 Z " fill="#000000" transform="translate(9,12)"/>
<path d="" fill="#000000" transform="translate(0,0)"/>
<path d="M0 0 C2 1 2 1 2 1 Z " fill="#000000" transform="translate(12,0)"/>
<path d="" fill="#000000" transform="translate(0,0)"/>
<path d="" fill="#000000" transform="translate(0,0)"/>
<path d="" fill="#000000" transform="translate(0,0)"/>
<path d="" fill="#000000" transform="translate(0,0)"/>
<path d="" fill="#000000" transform="translate(0,0)"/>
<path d="" fill="#000000" transform="translate(0,0)"/>
<path d="" fill="#000000" transform="translate(0,0)"/>
<path d="" fill="#000000" transform="translate(0,0)"/>
<path d="" fill="#000000" transform="translate(0,0)"/>
<path d="" fill="#000000" transform="translate(0,0)"/>
<path d="" fill="#000000" transform="translate(0,0)"/>
</svg>
