<svg width="14" height="14" viewBox="0 0 14 14" fill="none" xmlns="http://www.w3.org/2000/svg">
<mask id="mask0_147_1926" style="mask-type:alpha" maskUnits="userSpaceOnUse" x="0" y="0" width="14" height="14">
<rect width="14" height="14" fill="#D9D9D9"/>
</mask>
<g mask="url(#mask0_147_1926)">
<path d="M7.00008 9.91667C7.16536 9.91667 7.3039 9.86076 7.41571 9.74896C7.52751 9.63715 7.58342 9.49861 7.58342 9.33333C7.58342 9.16806 7.52751 9.02951 7.41571 8.91771C7.3039 8.8059 7.16536 8.75 7.00008 8.75C6.8348 8.75 6.69626 8.8059 6.58446 8.91771C6.47265 9.02951 6.41675 9.16806 6.41675 9.33333C6.41675 9.49861 6.47265 9.63715 6.58446 9.74896C6.69626 9.86076 6.8348 9.91667 7.00008 9.91667ZM6.41675 7.58333H7.58342V4.08333H6.41675V7.58333ZM7.00008 12.8333C6.19314 12.8333 5.4348 12.6802 4.72508 12.374C4.01536 12.0677 3.398 11.6521 2.873 11.1271C2.348 10.6021 1.93237 9.98472 1.62612 9.275C1.31987 8.56528 1.16675 7.80694 1.16675 7C1.16675 6.19306 1.31987 5.43472 1.62612 4.725C1.93237 4.01528 2.348 3.39792 2.873 2.87292C3.398 2.34792 4.01536 1.93229 4.72508 1.62604C5.4348 1.31979 6.19314 1.16667 7.00008 1.16667C7.80703 1.16667 8.56536 1.31979 9.27508 1.62604C9.9848 1.93229 10.6022 2.34792 11.1272 2.87292C11.6522 3.39792 12.0678 4.01528 12.374 4.725C12.6803 5.43472 12.8334 6.19306 12.8334 7C12.8334 7.80694 12.6803 8.56528 12.374 9.275C12.0678 9.98472 11.6522 10.6021 11.1272 11.1271C10.6022 11.6521 9.9848 12.0677 9.27508 12.374C8.56536 12.6802 7.80703 12.8333 7.00008 12.8333ZM7.00008 11.6667C8.30286 11.6667 9.40633 11.2146 10.3105 10.3104C11.2147 9.40625 11.6667 8.30278 11.6667 7C11.6667 5.69722 11.2147 4.59375 10.3105 3.68958C9.40633 2.78542 8.30286 2.33333 7.00008 2.33333C5.6973 2.33333 4.59383 2.78542 3.68967 3.68958C2.7855 4.59375 2.33341 5.69722 2.33341 7C2.33341 8.30278 2.7855 9.40625 3.68967 10.3104C4.59383 11.2146 5.6973 11.6667 7.00008 11.6667Z" fill="#CF0A2C"/>
</g>
</svg>
